<svg width="69" height="69" viewBox="0 0 69 69" fill="none" xmlns="http://www.w3.org/2000/svg">
<g id="Knee Joint">
<path id="Vector" d="M60.5819 67.206H67.4819C64.8599 54.234 58.7879 42.09 46.7819 36.4319C44.7119 35.466 42.7799 35.742 41.1239 33.8099V33.6719C45.8159 27.8759 49.2659 23.3219 51.6119 16.1459C52.9919 11.5919 53.8199 6.76195 53.8199 1.79395H43.8839C37.2599 19.4579 37.5359 18.7679 36.9839 20.1479C35.0519 24.1499 37.5359 28.9799 37.5359 28.9799C38.9159 34.6379 34.4999 35.3279 34.4999 35.3279C32.8439 36.2939 31.1879 35.0519 30.2219 33.9479C29.8079 31.6019 29.9459 28.7039 31.3259 26.7719C29.6699 28.2899 28.9799 31.3259 28.9799 32.8439C22.3559 30.6359 27.7379 22.7699 29.6699 20.8379C30.9119 19.5959 37.6739 4.69195 39.0539 1.79395H25.1159C25.6679 2.48395 23.5979 13.5239 22.7699 18.0779C22.0799 21.6659 17.9399 31.8779 25.2539 42.6419C26.7719 44.8499 47.3339 67.3439 47.3339 67.3439C48.8519 67.3439 49.8179 67.3439 51.3359 67.3439C38.9159 53.6819 40.5719 52.854 30.4979 44.5739C33.8099 44.5739 37.5359 41.8139 39.3299 38.916C39.4679 42.09 40.9859 43.8839 42.3659 46.506C46.3679 53.6819 45.4019 51.888 55.8899 67.3439C56.5799 67.3439 57.1319 67.3439 57.9599 67.3439C55.0619 62.2379 48.1619 51.6119 44.7119 48.0239C43.3319 45.402 41.3999 42.6419 40.8479 40.7099C44.1599 43.056 59.4779 65.688 60.5819 67.206ZM30.0839 44.0219C29.9459 43.8839 29.8079 43.746 29.6699 43.746C28.4279 42.9179 29.9459 38.3639 34.7759 36.846C33.9479 38.088 33.3959 39.3299 33.1199 40.7099C33.8099 38.6399 35.6039 36.8459 36.7079 36.4319C38.2259 36.2939 39.1919 37.1219 39.3299 37.95C37.1219 40.02 33.2579 43.056 30.0839 44.0219ZM9.79789 30.7739C10.4879 29.2559 10.3499 29.67 12.9719 24.4259L17.9399 32.5679C17.3879 31.4639 13.3859 23.1839 12.9719 22.2179C11.7299 24.2879 10.9019 25.5299 9.52189 27.5999L4.69189 20.1479L2.48389 21.8039C9.24589 30.0839 8.41789 29.1179 9.79789 30.7739Z" fill="white"/>
<path id="Vector_2" d="M11.3161 40.5722C11.5921 38.2262 12.0061 35.8802 12.2821 33.3962L19.7341 39.4682C9.93607 29.5322 12.6961 32.2922 11.5921 31.3262C11.3161 32.7062 10.4881 36.1562 10.0741 37.5362L3.03607 32.0162L1.51807 34.2242C5.24407 36.5702 9.66007 39.4682 11.3161 40.5722ZM11.4541 43.3322C12.4201 44.5742 13.2481 45.6782 15.3181 48.4382L6.62407 50.3702L7.31407 52.9922C11.7301 51.6122 14.2141 50.7842 18.3541 49.4042C17.2501 48.1622 17.5261 48.4382 13.5241 44.1602L22.9081 42.3662C18.3541 42.7802 15.8701 42.9182 11.4541 43.3322Z" fill="white"/>
</g>
</svg>
