<svg xmlns="http://www.w3.org/2000/svg" width="17" height="20" viewBox="0 0 17 20" fill="none">
  <path d="M4.2884 1.10208C6.94144 -0.391442 10.2025 -0.365337 12.8306 1.17046C15.4329 2.73755 17.0145 5.53433 16.9999 8.54288C16.9392 11.5317 15.2433 14.3412 13.1234 16.5131C11.8998 17.7722 10.531 18.8857 9.04502 19.8306C8.89198 19.9164 8.72434 19.9738 8.55037 20C8.38294 19.9931 8.21989 19.9452 8.07591 19.8605C5.80723 18.4407 3.81691 16.6283 2.20069 14.5105C0.848285 12.7428 0.0799419 10.6071 0 8.39343L0.0060547 8.0714C0.116477 5.18194 1.73011 2.54227 4.2884 1.10208ZM9.60168 5.92326C8.52316 5.4791 7.2797 5.72041 6.45189 6.53453C5.62407 7.34864 5.37521 8.57497 5.82148 9.64092C6.26776 10.7069 7.32115 11.4022 8.48981 11.4022C9.25541 11.4075 9.99137 11.1104 10.5337 10.577C11.076 10.0437 11.3797 9.3184 11.377 8.5628C11.381 7.40945 10.6802 6.36743 9.60168 5.92326Z" fill="white"/>
</svg>