<svg width="31" height="30" viewBox="0 0 31 30" fill="none" xmlns="http://www.w3.org/2000/svg">
<g id="Group 1000002142">
<path id="Vector" d="M19.3561 13.9458L13.689 8.2958C13.5959 8.20207 13.4852 8.12768 13.3632 8.07691C13.2412 8.02614 13.1103 8 12.9781 8C12.8459 8 12.7151 8.02614 12.5931 8.07691C12.4711 8.12768 12.3603 8.20207 12.2672 8.2958C12.0807 8.48316 11.9761 8.73661 11.9761 9.0008C11.9761 9.26498 12.0807 9.51844 12.2672 9.7058L17.2234 14.7058L12.2672 19.6558C12.0807 19.8432 11.9761 20.0966 11.9761 20.3608C11.9761 20.625 12.0807 20.8784 12.2672 21.0658C12.36 21.1603 12.4705 21.2355 12.5926 21.287C12.7146 21.3384 12.8456 21.3652 12.9781 21.3658C13.1106 21.3652 13.2416 21.3384 13.3637 21.287C13.4857 21.2355 13.5963 21.1603 13.689 21.0658L19.3561 15.4158C19.4577 15.3222 19.5388 15.2085 19.5943 15.082C19.6498 14.9555 19.6784 14.8189 19.6784 14.6808C19.6784 14.5427 19.6498 14.4061 19.5943 14.2796C19.5388 14.1531 19.4577 14.0394 19.3561 13.9458Z" fill="#771016"/>
<path id="Ellipse 740" d="M30.5 15C30.5 23.0075 24.0003 29.5 15.9812 29.5C7.9621 29.5 1.4624 23.0075 1.4624 15C1.4624 6.99246 7.9621 0.5 15.9812 0.5C24.0003 0.5 30.5 6.99246 30.5 15Z" stroke="#771016"/>
</g>
</svg>
